<svg width="112" height="21" viewBox="0 0 112 21" fill="none" xmlns="http://www.w3.org/2000/svg">
<path d="M4.524 10.22H13.932V13.86H4.524V10.22ZM4.86 21H0.324V1.4H15.136V5.04H4.86V21ZM18.2068 21V1.4H22.7428V21H18.2068ZM27.3943 21V1.4H31.9303V17.304H41.7583V21H27.3943ZM48.4648 9.296H57.9008V12.824H48.4648V9.296ZM48.8008 17.36H59.4688V21H44.2928V1.4H59.1048V5.04H48.8008V17.36ZM62.0139 9.52L63.8619 2.8L64.4779 5.348C63.6752 5.348 63.0126 5.11467 62.4899 4.648C61.9859 4.16267 61.7339 3.50933 61.7339 2.688C61.7339 1.88533 61.9952 1.24133 62.5179 0.755999C63.0406 0.251998 63.6846 -1.66893e-06 64.4499 -1.66893e-06C65.2339 -1.66893e-06 65.8779 0.251998 66.3819 0.755999C66.8859 1.24133 67.1379 1.88533 67.1379 2.688C67.1379 2.93067 67.1192 3.17333 67.0819 3.416C67.0632 3.64 66.9979 3.91067 66.8859 4.228C66.7926 4.54533 66.6339 4.96533 66.4099 5.488L64.7859 9.52H62.0139ZM70.518 21V1.4H75.026V14.168L84.378 1.4H88.634V21H84.154V8.26L74.802 21H70.518ZM106.198 21L100.094 11.564L103.762 9.352L111.35 21H106.198ZM93.4581 21V1.4H97.9661V21H93.4581ZM96.6501 13.104V9.324H103.482V13.104H96.6501ZM104.182 11.704L100.01 11.2L106.366 1.4H111.154L104.182 11.704Z" fill="#272729"/>
</svg>
