<svg xmlns="http://www.w3.org/2000/svg" enable-background="new 0 0 512 512" viewBox="0 0 512 512" id="upload-file"><path fill="#c3e3f7" d="M391,221c44.18,0,80,35.82,80,80s-35.82,80-80,80s-80-35.82-80-80
						S346.82,221,391,221z"></path><polygon fill="#c3e3f7" points="391 81 321 81 321 11"></polygon><polygon fill="#c3e3f7" points="321 441 321 501 41 501 41 91 101 91 101 441"></polygon><path fill="#0096ff" d="M391,346c-5.522,0-10-4.478-10-10v-70c0-5.522,4.478-10,10-10s10,4.478,10,10
						v70C401,341.522,396.522,346,391,346z"></path><path fill="#0096ff" d="M421,306c-2.56,0-5.118-0.977-7.071-2.929L391,280.143l-22.929,22.929
						c-3.906,3.904-10.236,3.904-14.143,0c-3.905-3.905-3.905-10.237,0-14.143l30-30c3.906-3.905,10.236-3.905,14.143,0l30,30
						c3.905,3.905,3.905,10.237,0,14.143C426.118,305.023,423.56,306,421,306z"></path><path fill="#0096ff" d="M391,451H101c-5.523,0-10-4.478-10-10V11c0-5.523,4.477-10,10-10h220
						c2.652,0,5.195,1.054,7.071,2.929l70,70C399.946,75.804,401,78.348,401,81v140c0,5.523-4.478,10-10,10s-10-4.477-10-10V85.142
						L316.857,21H111v410h270v-50c0-5.522,4.478-10,10-10s10,4.478,10,10v60C401,446.522,396.522,451,391,451z"></path><path fill="#0096ff" d="M321 511H41c-5.523 0-10-4.478-10-10V91c0-5.523 4.477-10 10-10h60c5.523 0 10 4.477 10 10s-4.477 10-10 10H51v390h260v-50c0-5.522 4.478-10 10-10s10 4.478 10 10v60C331 506.522 326.522 511 321 511zM391 91h-70c-5.522 0-10-4.477-10-10V11c0-5.523 4.478-10 10-10s10 4.477 10 10v60h60c5.522 0 10 4.477 10 10S396.522 91 391 91zM391 391c-49.626 0-90-40.374-90-90s40.374-90 90-90 90 40.374 90 90S440.626 391 391 391zM391 231c-38.598 0-70 31.402-70 70s31.402 70 70 70 70-31.402 70-70S429.598 231 391 231zM271 91H151c-5.523 0-10-4.477-10-10s4.477-10 10-10h120c5.522 0 10 4.477 10 10S276.522 91 271 91z"></path><path fill="#0096ff" d="M341 141H151c-5.523 0-10-4.477-10-10s4.477-10 10-10h190c5.522 0 10 4.477 10 10S346.522 141 341 141zM341 191H151c-5.523 0-10-4.477-10-10s4.477-10 10-10h190c5.522 0 10 4.477 10 10S346.522 191 341 191zM281 241H151c-5.523 0-10-4.477-10-10s4.477-10 10-10h130c5.522 0 10 4.477 10 10S286.522 241 281 241zM261 291H151c-5.523 0-10-4.478-10-10s4.477-10 10-10h110c5.522 0 10 4.478 10 10S266.522 291 261 291zM261 341H151c-5.523 0-10-4.478-10-10s4.477-10 10-10h110c5.522 0 10 4.478 10 10S266.522 341 261 341zM281 391H151c-5.523 0-10-4.478-10-10s4.477-10 10-10h130c5.522 0 10 4.478 10 10S286.522 391 281 391z"></path></svg>