<svg width="165" height="216" viewBox="0 0 165 216" fill="none" xmlns="http://www.w3.org/2000/svg">
<g opacity="0.3">
<path opacity="0.3" d="M139.67 49.25C134.203 49.2447 128.961 47.0704 125.095 43.2046C121.229 39.3387 119.055 34.097 119.05 28.6299V0H26.91C19.773 0 12.9284 2.83523 7.88176 7.88184C2.83516 12.9284 0 19.7729 0 26.9099V189.13C0.0105984 196.26 2.85043 203.094 7.89589 208.132C12.9413 213.17 19.78 216 26.91 216H137.51C141.045 216.001 144.545 215.306 147.811 213.955C151.077 212.603 154.045 210.621 156.545 208.122C159.045 205.623 161.028 202.656 162.381 199.39C163.734 196.125 164.43 192.625 164.43 189.09V49.21L139.67 49.25Z" fill="#212529"/>
</g>
<path d="M164.43 49.25H139.67C134.203 49.2447 128.961 47.0704 125.095 43.2046C121.229 39.3387 119.055 34.097 119.05 28.6299V0L164.43 49.25Z" fill="#fff"/>
</svg>
